<svg width="20" height="20" viewBox="0 0 20 20" fill="none" xmlns="http://www.w3.org/2000/svg">
<path d="M12.1705 2.10475C11.0018 2.30269 9.6947 2.81405 8.67976 3.45736C6.71139 4.71101 4.32782 7.91109 2.8823 11.2102C2.22105 12.7277 0.898548 16.6206 1.00619 16.7196C1.03695 16.7526 4.4816 16.835 8.67976 16.8845L16.2918 17L16.5379 16.1917C16.9992 14.6742 17.7066 11.4246 17.8911 9.94001C18.1987 7.43273 17.845 5.05741 16.9531 3.6718C16.0919 2.33568 14.2927 1.74185 12.1705 2.10475Z" fill="white"/>
<path d="M1.52344 0.0625C1.40625 0.09375 1.21094 0.164062 1.09375 0.222656C0.8125 0.359375 0.359375 0.8125 0.222656 1.09375C-0.0156248 1.58594 2.31565e-07 1.00391 2.31565e-07 10C2.31565e-07 18.9961 -0.0156248 18.4141 0.222656 18.9062C0.359375 19.1875 0.8125 19.6406 1.09375 19.7773C1.58594 20.0156 1.00391 20 10 20C18.9961 20 18.4141 20.0156 18.9062 19.7773C19.1875 19.6406 19.6406 19.1875 19.7773 18.9062C20.0156 18.4141 20 18.9961 20 10C20 1.00391 20.0156 1.58594 19.7773 1.09375C19.6406 0.8125 19.1875 0.359375 18.9062 0.222656C18.4102 -0.015625 18.9961 0 9.98047 0.00390625C2.88672 0.00390625 1.70703 0.0117188 1.52344 0.0625ZM13.207 3.48828C13.8359 3.65234 14.2578 3.90234 14.6172 4.32422C15.3867 5.23438 15.5586 6.71875 15.1133 8.55469C14.9531 9.20703 14.7109 9.92969 14.1484 11.4258C13.5625 12.9844 13.5391 13.0703 13.5391 13.6133C13.5391 14.2344 13.6367 14.4531 13.918 14.4531C14.1875 14.4531 14.6641 14.0859 15.6523 13.1172C16.4688 12.3125 16.5508 12.2578 16.6914 12.4102C16.8828 12.625 16.8789 13.293 16.6836 13.7461C16.1055 15.0977 14.4688 16.3164 13.082 16.4297C12.7383 16.457 12.2773 16.3984 11.9844 16.2891C11.25 16.0156 10.9453 14.9844 11.1914 13.5977C11.2656 13.168 11.5156 12.1836 11.7109 11.5547L11.8633 11.0547L11.7422 11.0391C11.5781 11.0117 9.23438 10.9375 8.64844 10.9375H8.17578L8.10938 11.4141C7.98438 12.3438 7.92969 13 7.89062 14.1211C7.84766 15.3398 7.81641 15.5312 7.62891 15.8086C7.48438 16.0234 7.37891 16.0977 6.92188 16.3242C6.15234 16.707 5.72266 16.7422 5.41797 16.4531C4.87891 15.9414 4.91406 14.3086 5.52344 11.9375L5.73047 11.1289L5.51172 11.1523C5.39062 11.168 4.98047 11.2227 4.59766 11.2734C3.75781 11.3867 3.31641 11.3945 3.22266 11.3047C3.09766 11.1797 3.24609 10.8242 3.54297 10.543C4.03125 10.0742 4.70703 9.75391 5.76172 9.49219L6.34375 9.34766L6.49219 8.98047C6.67969 8.51953 7.16406 7.52344 7.44922 7.01172C8.55078 5.04688 10.0742 3.68359 11.4688 3.41797C11.9219 3.33203 12.7188 3.36719 13.207 3.48828Z" fill="black"/>
<path d="M11.4023 5.74219C11.1055 5.78906 10.7734 5.91016 10.5156 6.0625C10.0156 6.35938 9.41016 7.11719 9.04297 7.89844C8.875 8.25781 8.53906 9.17969 8.56641 9.20312C8.57422 9.21094 9.44922 9.23047 10.5156 9.24219L12.4492 9.26953L12.5117 9.07812C12.6289 8.71875 12.8086 7.94922 12.8555 7.59766C12.9336 7.00391 12.8438 6.44141 12.6172 6.11328C12.3984 5.79688 11.9414 5.65625 11.4023 5.74219Z" fill="black"/>
</svg>
